<svg width="27" height="24" viewBox="0 0 27 24" fill="none" xmlns="http://www.w3.org/2000/svg">
<path d="M27 10.125V10.875C27 11.4963 26.4963 12 25.875 12H25.5L24.276 20.5682C24.1176 21.6767 23.1683 22.5 22.0486 22.5H4.95141C3.8317 22.5 2.88239 21.6767 2.724 20.5682L1.5 12H1.125C0.503672 12 0 11.4963 0 10.875V10.125C0 9.50368 0.503672 9.00001 1.125 9.00001H4.28161L9.28692 2.11778C9.77419 1.44784 10.7123 1.29967 11.3823 1.78693C12.0523 2.2742 12.2004 3.21231 11.7131 3.88229L7.99111 9.00001H19.0089L15.2869 3.88225C14.7996 3.21231 14.9478 2.27415 15.6178 1.78689C16.2877 1.29962 17.2259 1.44775 17.7131 2.11773L22.7184 9.00001H25.875C26.4963 9.00001 27 9.50368 27 10.125ZM14.625 18.375V13.125C14.625 12.5037 14.1213 12 13.5 12C12.8787 12 12.375 12.5037 12.375 13.125V18.375C12.375 18.9963 12.8787 19.5 13.5 19.5C14.1213 19.5 14.625 18.9963 14.625 18.375ZM19.875 18.375V13.125C19.875 12.5037 19.3713 12 18.75 12C18.1287 12 17.625 12.5037 17.625 13.125V18.375C17.625 18.9963 18.1287 19.5 18.75 19.5C19.3713 19.5 19.875 18.9963 19.875 18.375ZM9.375 18.375V13.125C9.375 12.5037 8.87133 12 8.25 12C7.62867 12 7.125 12.5037 7.125 13.125V18.375C7.125 18.9963 7.62867 19.5 8.25 19.5C8.87133 19.5 9.375 18.9963 9.375 18.375Z" fill="white"/>
</svg>
