<svg width="60" height="40" viewBox="0 0 60 40" fill="none" xmlns="http://www.w3.org/2000/svg">
<path d="M5.20753 7.86954C4.89595 7.76203 4.57071 7.69915 4.24151 7.68278C4.15849 7.6694 4.07438 7.66401 3.99034 7.66668H0.100464V24.6655H3.96458C4.04818 24.672 4.13214 24.672 4.21574 24.6655C4.54529 24.6496 4.87074 24.5856 5.18177 24.4756C5.93288 24.2267 6.5895 23.7533 7.06287 23.1192C7.53624 22.4852 7.80356 21.7211 7.82869 20.9302V11.4084C7.80415 10.6218 7.54001 9.86145 7.07159 9.22904C6.60318 8.59662 5.95283 8.12231 5.20753 7.86954ZM5.20753 20.795C5.21221 20.8151 5.21221 20.8361 5.20753 20.8562C5.1966 21.1765 5.06011 21.4796 4.82755 21.7001C4.59498 21.9207 4.28501 22.0408 3.96458 22.0347H2.74416V10.3039H3.96458C4.28178 10.3028 4.58709 10.4246 4.81644 10.6437C5.04578 10.8629 5.18133 11.1623 5.19465 11.4793C5.19938 11.5005 5.19938 11.5225 5.19465 11.5437C5.19933 11.5638 5.19933 11.5847 5.19465 11.6049V20.7306C5.20708 20.75 5.21479 20.7721 5.21719 20.795H5.20753Z" fill="white"/>
<path d="M38.8993 7.67041H36.2685V24.6661H38.8993V7.67041Z" fill="white"/>
<path d="M49.2649 11.5408V24.6659H46.6341V11.5408C46.6341 11.2128 46.5038 10.8983 46.272 10.6664C46.0401 10.4345 45.7255 10.3043 45.3976 10.3043C45.0697 10.3043 44.7551 10.4345 44.5233 10.6664C44.2914 10.8983 44.1611 11.2128 44.1611 11.5408V24.6659H41.5303V11.5408C41.5298 10.7314 41.7834 9.94229 42.2554 9.28481C42.7275 8.62732 43.394 8.13465 44.1611 7.87632C44.5594 7.73633 44.9787 7.66554 45.4008 7.66701C45.8203 7.66604 46.237 7.73459 46.6341 7.86988C47.4022 8.12856 48.0695 8.6222 48.5416 9.28098C49.0138 9.93975 49.2668 10.7303 49.2649 11.5408Z" fill="white"/>
<path d="M15.4312 7.86988C15.034 7.73533 14.6174 7.6668 14.198 7.66701C13.7758 7.66554 13.3565 7.73633 12.9582 7.87632C12.1906 8.1341 11.5233 8.62653 11.0507 9.28407C10.578 9.9416 10.3239 10.731 10.3242 11.5408V20.7953C10.3212 21.6073 10.5741 22.3996 11.0469 23.0597C11.5197 23.7198 12.1885 24.2142 12.9582 24.4727C13.3561 24.6142 13.7757 24.6851 14.198 24.682C14.6179 24.6817 15.0348 24.611 15.4312 24.4727C16.1988 24.2142 16.8658 23.721 17.3378 23.0629C17.8099 22.4048 18.0633 21.6149 18.0621 20.805V11.5408C18.0639 10.7303 17.8109 9.93975 17.3388 9.28098C16.8667 8.6222 16.1993 8.12856 15.4312 7.86988ZM15.4312 20.7953C15.4312 21.1233 15.301 21.4378 15.0691 21.6697C14.8372 21.9016 14.5227 22.0319 14.1947 22.0319C13.8668 22.0319 13.5523 21.9016 13.3204 21.6697C13.0885 21.4378 12.9582 21.1233 12.9582 20.7953V11.5408C12.9582 11.2128 13.0885 10.8983 13.3204 10.6664C13.5523 10.4345 13.8668 10.3043 14.1947 10.3043C14.5227 10.3043 14.8372 10.4345 15.0691 10.6664C15.301 10.8983 15.4312 11.2128 15.4312 11.5408V20.7953Z" fill="white"/>
<path d="M57.0028 7.86988C56.6056 7.7351 56.1889 7.66657 55.7695 7.66701C55.3473 7.66554 54.928 7.73633 54.5297 7.87632C53.7627 8.13465 53.0961 8.62732 52.6241 9.28481C52.1521 9.94229 51.8984 10.7314 51.8989 11.5408V20.7953C51.895 21.6057 52.146 22.3968 52.6164 23.0568C53.0868 23.7167 53.7527 24.212 54.5201 24.4727C54.9179 24.6142 55.3375 24.6851 55.7598 24.682C56.1794 24.6841 56.5963 24.6155 56.9931 24.4791C57.7607 24.2206 58.4276 23.7275 58.8997 23.0693C59.3718 22.4112 59.6251 21.6214 59.6239 20.8114V11.5408C59.6265 10.7315 59.3748 9.94182 58.9045 9.28319C58.4343 8.62455 57.769 8.1302 57.0028 7.86988ZM57.0028 20.7953C57.0028 21.1233 56.8725 21.4378 56.6406 21.6697C56.4087 21.9016 56.0942 22.0319 55.7662 22.0319C55.4383 22.0319 55.1238 21.9016 54.8919 21.6697C54.66 21.4378 54.5297 21.1233 54.5297 20.7953V11.5408C54.5297 11.2128 54.66 10.8983 54.8919 10.6664C55.1238 10.4345 55.4383 10.3043 55.7662 10.3043C56.0942 10.3043 56.4087 10.4345 56.6406 10.6664C56.8725 10.8983 57.0028 11.2128 57.0028 11.5408V20.7953Z" fill="white"/>
<path d="M33.6861 11.5343V24.6659H31.0553V11.5343C31.0553 11.2064 30.925 10.8919 30.6931 10.66C30.4612 10.4281 30.1467 10.2978 29.8188 10.2978C29.4908 10.2978 29.1763 10.4281 28.9444 10.66C28.7125 10.8919 28.5822 11.2064 28.5822 11.5343V24.6659H25.9482V11.5343C25.932 11.2177 25.7949 10.9194 25.5651 10.701C25.3352 10.4827 25.0303 10.3609 24.7133 10.3609C24.3963 10.3609 24.0914 10.4827 23.8615 10.701C23.6317 10.9194 23.4946 11.2177 23.4784 11.5343V24.6659H20.8444V11.5343C20.8442 10.7905 21.0587 10.0625 21.4622 9.4376C21.8656 8.81272 22.4409 8.31756 23.1188 8.01157C23.7968 7.70557 24.5486 7.60175 25.2841 7.71255C26.0196 7.82336 26.7075 8.14409 27.2652 8.63624C27.8229 8.14409 28.5108 7.82336 29.2463 7.71255C29.9818 7.60175 30.7337 7.70557 31.4116 8.01157C32.0896 8.31756 32.6648 8.81272 33.0683 9.4376C33.4717 10.0625 33.6862 10.7905 33.6861 11.5343Z" fill="white"/>
<path d="M0.818545 31.2926V32.7449H0.100464V28.7294H0.644659C0.841085 28.7294 1.04073 28.7294 1.24038 28.7294C1.49032 28.7245 1.73939 28.7604 1.97778 28.8357C2.16065 28.8917 2.32667 28.9924 2.46079 29.1287C2.5726 29.2444 2.65825 29.3828 2.71196 29.5345C2.76734 29.6894 2.79461 29.853 2.79246 30.0175C2.79588 30.1902 2.76295 30.3618 2.69583 30.521C2.62871 30.6802 2.52889 30.8235 2.40283 30.9417C2.25787 31.0734 2.08807 31.1748 1.90339 31.2401C1.71871 31.3053 1.52286 31.333 1.32732 31.3216C1.15735 31.3205 0.987543 31.3108 0.818545 31.2926ZM1.32088 29.3799H0.818545V30.6229C1.01819 30.6422 1.18564 30.6518 1.31444 30.6518C1.50993 30.6622 1.70275 30.6028 1.85864 30.4844C1.92735 30.4256 1.98144 30.3517 2.01665 30.2684C2.05186 30.1852 2.06722 30.0948 2.0615 30.0046C2.0615 29.586 1.81355 29.3799 1.32088 29.3799Z" fill="white"/>
<path d="M5.9997 32.745H3.62006V28.7295H5.94174V29.3735H4.3317V30.3717H5.77752V31.0158H4.32526V32.0526H5.9997V32.745Z" fill="white"/>
<path d="M7.62268 32.745H6.91748V28.7295H7.62268V30.6326L9.20375 28.7295H10.0539L8.40194 30.5907L10.1569 32.7353H9.26171L7.62268 30.6648V32.745Z" fill="white"/>
<path d="M13.8084 32.745H13.1097V29.3896H11.9408L11.8603 30.1463C11.8272 30.541 11.7713 30.9335 11.6928 31.3217C11.6374 31.5885 11.5565 31.8495 11.4513 32.1009C11.3775 32.2716 11.2677 32.4243 11.1293 32.5485C11.0233 32.6438 10.8947 32.7103 10.7558 32.7417C10.6085 32.7645 10.4586 32.7645 10.3114 32.7417L10.3275 32.0398C10.3962 32.0568 10.4681 32.0568 10.5368 32.0398C10.6124 32.0024 10.6776 31.9472 10.7268 31.8788C10.8163 31.7601 10.8829 31.6258 10.9232 31.4827C11.0978 30.8524 11.1993 30.2041 11.2259 29.5506L11.2839 28.7456H13.8117L13.8084 32.745Z" fill="white"/>
<path d="M15.1158 32.7453H14.4042L16.1012 28.7202H16.7226L18.4196 32.7453H17.6661L17.2475 31.7181H15.5344L15.1158 32.7453ZM16.9802 31.058L16.3942 29.6251L15.8049 31.0516L16.9802 31.058Z" fill="white"/>
<path d="M19.743 32.745H19.0378V28.7295H19.743L21.1147 30.6068L22.4221 28.7295H23.0854V32.745H22.3867V29.8469L21.1212 31.6308H21.0181L19.7301 29.863L19.743 32.745Z" fill="white"/>
<path d="M27.4261 32.745H26.7274V31.0286H24.8951V32.745H24.1867V28.7295H24.8951V30.3717H26.7306V28.7295H27.4293L27.4261 32.745Z" fill="white"/>
<path d="M28.7335 32.7453H28.0219L29.7253 28.7202H30.3436L32.0406 32.7453H31.2903L30.8717 31.7181H29.1586L28.7335 32.7453ZM30.5948 31.058L30.0119 29.6251L29.4194 31.0516L30.5948 31.058Z" fill="white"/>
<path d="M35.1479 32.7452H34.4491V31.3573H33.8695L32.9711 32.7452H32.179L33.2062 31.2124C32.9973 31.1123 32.8193 30.9576 32.691 30.7648C32.5614 30.5683 32.4951 30.3368 32.501 30.1015C32.4943 29.9162 32.5276 29.7317 32.5987 29.5606C32.6699 29.3894 32.7771 29.2356 32.9131 29.1097C33.2577 28.8211 33.7016 28.679 34.1497 28.7136H34.6552H35.1479V32.7452ZM33.8051 30.6972H34.4491V29.3898C34.2527 29.3898 34.1078 29.3898 34.008 29.3898C33.8057 29.3791 33.6072 29.4472 33.4541 29.5798C33.3859 29.6421 33.332 29.7184 33.2958 29.8034C33.2597 29.8884 33.2423 29.9802 33.2448 30.0725C33.2398 30.2284 33.2965 30.38 33.4026 30.4943C33.5128 30.6016 33.6533 30.6724 33.8051 30.6972Z" fill="white"/>
<path d="M38.1813 32.745H37.4761V28.7295H39.7301V29.3735H38.1716L38.1813 32.745Z" fill="white"/>
<path d="M41.089 31.2926V32.7449H40.3838V28.7294H40.928C41.1244 28.7294 41.3241 28.7294 41.5237 28.7294C41.7736 28.7245 42.0227 28.7604 42.2611 28.8357C42.4299 28.8861 42.5844 28.9756 42.712 29.0971C42.8396 29.2185 42.9366 29.3684 42.9953 29.5345C43.0507 29.6894 43.0779 29.853 43.0758 30.0175C43.0792 30.1902 43.0463 30.3618 42.9792 30.521C42.912 30.6802 42.8122 30.8235 42.6862 30.9417C42.5412 31.0734 42.3714 31.1748 42.1867 31.2401C42.002 31.3053 41.8062 31.333 41.6106 31.3216C41.4364 31.3209 41.2623 31.3113 41.089 31.2926ZM41.5913 29.3799H41.089V30.6229C41.2886 30.6422 41.4561 30.6518 41.5849 30.6518C41.7804 30.6622 41.9732 30.6028 42.1291 30.4844C42.1978 30.4256 42.2519 30.3517 42.2871 30.2684C42.3223 30.1852 42.3377 30.0948 42.3319 30.0046C42.3319 29.586 42.084 29.3799 41.5913 29.3799Z" fill="white"/>
<path d="M46.2636 28.7295H46.9753L45.61 31.8111C45.5042 32.0764 45.3441 32.3167 45.1398 32.5163C44.9692 32.6665 44.7489 32.7479 44.5216 32.7449C44.3249 32.7572 44.13 32.7003 43.9709 32.5839L44.2189 31.9882C44.3059 32.049 44.409 32.0826 44.5151 32.0848C44.6022 32.0855 44.6872 32.0588 44.7583 32.0086C44.8294 31.9583 44.8829 31.887 44.9112 31.8047L44.9692 31.6662L43.1981 28.7295H43.9935L45.3073 30.9836L46.2636 28.7295Z" fill="white"/>
<path d="M50.8008 32.745H50.0956V29.3896H48.3052V32.745H47.6V28.7295H50.8008V32.745Z" fill="white"/>
<path d="M55.1126 32.745H54.4074V29.3896H52.617V32.745H51.9118V28.7295H55.1126V32.745Z" fill="white"/>
<path d="M56.42 32.7453H55.7083L57.4182 28.7202H58.0364L59.7334 32.7453H58.9831L58.5645 31.7181H56.8386L56.42 32.7453ZM58.2812 31.058L57.6983 29.6251L57.0962 31.058H58.2812Z" fill="white"/>
</svg>
