<svg width="16" height="16" viewBox="0 0 16 16" fill="none" xmlns="http://www.w3.org/2000/svg">
<path d="M6.5078 0.881307L8.40308 0L11.097 5.25984L9.28038 6.15381C8.92239 6.99312 10.7197 10.3464 11.4783 10.4017C11.5383 10.363 13.2596 9.51638 13.2596 9.51638L15.9995 14.8049C15.9995 14.8049 14.1569 15.7075 14.0969 15.7355C8.8564 18.1288 1.36329 3.56322 6.5078 0.881307ZM7.79376 1.73061L7.11178 2.0666C3.58322 3.90788 9.89703 16.1895 13.5436 14.5236L14.1916 14.2076L12.6776 11.2857L11.9936 11.619C9.88503 12.6503 6.4858 6.13981 8.62374 4.99385L9.29505 4.66252L7.79376 1.73061ZM7.28778 13.9849C6.30514 14.9462 4.67852 15.1235 4.21854 14.3329C3.90521 13.7936 4.01121 13.1809 4.13387 12.471C4.26787 11.697 4.41987 10.819 3.93721 9.99769C3.12457 8.61307 1.33929 8.67574 0 9.55038L0.637314 10.5257C1.18996 10.1644 1.82661 10.009 2.29926 10.1197C3.40123 10.3784 3.06657 11.8036 2.98591 12.2723C2.84458 13.0876 2.68592 14.0122 3.21057 14.9175C4.09788 16.4468 6.5798 16.2822 8.07042 14.8569C7.80576 14.5856 7.54444 14.2969 7.28778 13.9849Z" fill="white"/>
</svg>
