<svg width="16" height="16" viewBox="0 0 16 16" fill="none" xmlns="http://www.w3.org/2000/svg">
<path fill-rule="evenodd" clip-rule="evenodd" d="M16 8C16 12.4183 12.4183 16 8 16C3.58172 16 0 12.4183 0 8C0 3.58172 3.58172 0 8 0V1V2V8H10.5H14H15H16ZM13.917 9H11.9146C11.9699 9.15639 12 9.32468 12 9.5C12 10.3284 11.3284 11 10.5 11C9.67157 11 9 10.3284 9 9.5C9 9.32468 9.03008 9.15639 9.08535 9H8H7V8V2.08296C4.16229 2.55904 2 5.027 2 8C2 10.9945 4.19367 13.4766 7.06167 13.9271C7.02155 13.7917 7 13.6484 7 13.5C7 12.6716 7.67157 12 8.5 12C9.32843 12 10 12.6716 10 13.5C10 13.5546 9.99708 13.6085 9.99139 13.6616C12.0221 12.9474 13.5527 11.1714 13.917 9ZM8.69618 13.96C8.87481 13.8838 9 13.7065 9 13.5C9 13.2239 8.77614 13 8.5 13C8.22386 13 8 13.2239 8 13.5C8 13.7379 8.1662 13.9371 8.38885 13.9876C8.49203 13.981 8.59449 13.9718 8.69618 13.96ZM10 9.5C10 9.22386 10.2239 9 10.5 9C10.7761 9 11 9.22386 11 9.5C11 9.77614 10.7761 10 10.5 10C10.2239 10 10 9.77614 10 9.5ZM4.37078 10L3.83506 9.67015L3.15944 9.94741L3 9.35853L3.87371 9L4.37078 9.30598L4.77448 9.05748L5 9.61267L4.37078 10ZM10.8351 6.67015L11.3708 7L12 6.61267L11.7745 6.05748L11.3708 6.30598L10.8737 6L10 6.35853L10.1594 6.94741L10.8351 6.67015ZM6 10.6292L5.67015 11.1649L5.94741 11.8406L5.35853 12L5 11.1263L5.30598 10.6292L5.05748 10.2255L5.61267 10L6 10.6292ZM10.6701 3.16494L11 2.62922L10.6127 2L10.0575 2.22552L10.306 2.62922L10 3.12629L10.3585 4L10.9474 3.84056L10.6701 3.16494ZM13.5 5C14.3284 5 15 4.32843 15 3.5C15 2.67157 14.3284 2 13.5 2C12.6716 2 12 2.67157 12 3.5C12 4.32843 12.6716 5 13.5 5ZM13.5 4C13.7761 4 14 3.77614 14 3.5C14 3.22386 13.7761 3 13.5 3C13.2239 3 13 3.22386 13 3.5C13 3.77614 13.2239 4 13.5 4ZM6 4H5V5H6V4ZM3 6H4V7H3V6ZM6 7H5V8H6V7Z" fill="#A7A7A7"/>
</svg>
