<svg width="24" height="24" viewBox="0 0 24 24" fill="none" xmlns="http://www.w3.org/2000/svg">
<path fill-rule="evenodd" clip-rule="evenodd" d="M12 24C18.6274 24 24 18.6274 24 12C24 5.37258 18.6274 0 12 0C5.37258 0 0 5.37258 0 12C0 18.6274 5.37258 24 12 24ZM12 22C17.5228 22 22 17.5228 22 12C22 6.47715 17.5228 2 12 2C6.47715 2 2 6.47715 2 12C2 14.2833 2.76528 16.388 4.05334 18.0713C4.35185 15.4891 5.87989 13.2815 8.03694 12.049C7.38671 11.2051 7 10.1477 7 9C7 6.23858 9.23858 4 12 4C14.7614 4 17 6.23858 17 9C17 10.1477 16.6133 11.2051 15.9631 12.049C18.1201 13.2815 19.6481 15.489 19.9467 18.0711C19.3651 18.8311 18.677 19.5053 17.9046 20.0713C17.9673 19.7237 18 19.3657 18 19C18 16.4945 16.4644 14.3478 14.2829 13.4496C13.5986 13.8014 12.8225 14 12 14C11.1775 14 10.4015 13.8014 9.71708 13.4496C7.53567 14.3478 6.00001 16.4946 6.00001 19C6.00001 19.3657 6.03274 19.7238 6.09542 20.0715C7.75009 21.284 9.79143 22 12 22ZM13.717 11.4604C14.4927 10.9181 15 10.0183 15 9C15 7.34315 13.6569 6 12 6C10.3431 6 9 7.34315 9 9C9 9.89519 9.39209 10.6988 10.0139 11.2485C10.0139 11.2485 10.0139 11.2485 10.0139 11.2485C10.1204 11.3426 10.2336 11.4293 10.3527 11.5077C10.8255 11.8189 11.3916 12 12 12C12.0518 12 12.1032 11.9987 12.1544 11.9961" fill="#A7A7A7"/>
</svg>
